PathFileType	4	(X/Y/Z)	TVC_36_Cal_03_0_static_RCNL2025.trc
DataRate	CameraRate	NumFrames	NumMarkers	Units	OrigDataRate	OrigDataStartFrame	OrigNumFrames
100	100	5	27	mm	100	70	139
Frame#	Time	R_Shoulder			L_Shoulder			C7			J_Notch			R_Elbow			L_Elbow			R_Wrist			L_Wrist			R_Asis			L_Asis			R_Psis			L_Psis			Sacral			Thoracic			Sternum			R_Thigh_Lateral			R_Knee_Lateral			R_Shank_Lateral			R_Ankle_Lateral			R_Heel			R_Toe			L_Thigh_Lateral			L_Knee_Lateral			L_Shank_Lateral			L_Ankle_Lateral			L_Heel			L_Toe		
		X1	Y1	Z1	X2	Y2	Z2	X3	Y3	Z3	X4	Y4	Z4	X5	Y5	Z5	X6	Y6	Z6	X7	Y7	Z7	X8	Y8	Z8	X9	Y9	Z9	X10	Y10	Z10	X11	Y11	Z11	X12	Y12	Z12	X13	Y13	Z13	X14	Y14	Z14	X15	Y15	Z15	X16	Y16	Z16	X17	Y17	Z17	X18	Y18	Z18	X19	Y19	Z19	X20	Y20	Z20	X21	Y21	Z21	X22	Y22	Z22	X23	Y23	Z23	X24	Y24	Z24	X25	Y25	Z25	X26	Y26	Z26	X27	Y27	Z27
70	0.69000000	-239.745773	1391.328491	35.332134	-347.111450	1369.842773	-311.011230	-342.282227	1433.580811	-120.694893	-184.543365	1319.276978	-155.676392	-239.505020	1124.048950	173.555359	-310.582001	1071.623535	-418.341034	-202.483704	903.629852	133.413334	-204.933884	881.937439	-395.898605	-191.941605	899.359619	-26.848396	-283.649628	902.880127	-270.269226	-379.397858	932.583618	-42.589355	-410.141846	925.469666	-120.038521	-394.769852	929.026642	-81.313938	-378.023468	1154.703247	-94.460342	-148.285706	1167.732910	-176.894531	-240.009018	633.234192	51.763287	-317.336731	460.408051	-4.544933	-339.506348	260.509033	24.234545	-343.039093	69.303703	-56.613232	-391.510162	55.198875	-103.506294	-218.281250	40.522774	-96.726105	-336.807190	672.910645	-361.233124	-310.053009	466.732758	-318.411591	-372.866211	274.768158	-332.574310	-307.997681	69.955833	-316.740265	-314.472626	51.090580	-253.841400	-192.803009	44.941368	-377.900208
71	0.70000000	-239.803452	1391.410522	34.989605	-347.206543	1369.670532	-311.447571	-342.361725	1433.689941	-121.080795	-184.462173	1319.370483	-156.035400	-239.464279	1123.732056	173.083496	-310.541412	1071.452026	-418.584534	-202.637909	903.794769	133.215046	-204.943077	881.779510	-395.992081	-192.006531	899.497009	-26.908873	-283.655548	902.912231	-270.529297	-379.622925	932.663696	-42.801125	-410.212708	925.546570	-120.299179	-394.917816	929.105133	-81.550152	-378.163116	1154.741089	-94.757896	-148.319550	1167.712891	-177.140213	-240.033432	633.250366	51.712280	-317.449982	460.588928	-4.561533	-339.577454	260.601990	24.211489	-343.138367	69.277153	-56.645390	-391.701111	55.381760	-103.251404	-218.319031	40.616947	-96.691444	-336.677246	672.963501	-361.427612	-310.007874	466.778046	-318.614624	-372.797211	274.720062	-332.592346	-308.033478	69.959114	-316.769836	-314.485413	51.115543	-253.841492	-192.678528	44.918438	-377.817505
72	0.71000000	-239.780411	1391.500610	34.618317	-347.085114	1369.577637	-311.864624	-342.406860	1433.651489	-121.424591	-184.527878	1319.368774	-156.430374	-239.672180	1124.456177	173.068192	-310.525299	1071.272827	-418.812927	-202.857063	903.979034	133.172272	-204.934883	881.646851	-396.026382	-192.119583	899.496887	-26.949802	-283.534760	902.988525	-270.723022	-379.794312	932.657104	-42.955711	-410.302460	925.511780	-120.493103	-395.048386	929.084442	-81.724407	-378.354370	1155.129517	-94.933060	-148.151413	1167.736572	-177.378448	-240.108734	633.966431	51.169754	-317.620239	460.602112	-4.587654	-339.696289	260.651642	24.249989	-343.123291	69.261200	-56.691750	-391.567108	55.243534	-103.603836	-218.376266	40.618279	-96.647491	-336.539276	672.867798	-361.604187	-309.893982	466.817780	-318.662903	-372.830780	274.729889	-332.741058	-308.053894	70.003342	-316.749329	-314.551422	51.219189	-253.807785	-192.725845	44.883896	-377.738800
73	0.72000000	-239.802109	1391.611572	34.156464	-347.181000	1369.501099	-312.312927	-342.298218	1433.562866	-121.931068	-184.462723	1319.436768	-156.823181	-239.843933	1124.701050	172.894394	-310.562317	1071.149902	-419.050171	-203.079895	904.171692	133.102608	-204.973236	881.493225	-396.037689	-192.242310	899.549561	-27.042704	-283.516388	902.988281	-270.991455	-380.150696	932.781494	-43.180973	-410.554199	925.570190	-120.810913	-395.352448	929.175842	-81.995943	-378.618988	1155.044434	-95.229294	-148.172638	1167.766602	-177.744766	-240.208908	633.948181	51.235355	-317.592499	460.722595	-4.721705	-339.828156	260.694275	24.196617	-343.108215	69.260834	-56.696716	-391.409760	55.238583	-103.631805	-218.394394	40.577915	-96.635406	-336.397308	672.917175	-361.824860	-309.861511	466.775421	-318.798706	-372.824036	274.734650	-332.781372	-308.039948	69.968109	-316.773743	-314.511078	51.117580	-253.835571	-192.819824	44.865982	-377.869507
74	0.73000000	-239.773727	1391.702393	33.645447	-347.288727	1369.480347	-312.646667	-342.214722	1433.507935	-122.405273	-184.524216	1319.428223	-157.245346	-239.775879	1124.934814	172.517914	-310.495789	1071.043945	-419.216888	-203.017822	904.292572	132.721943	-204.812340	881.346497	-396.389313	-192.297531	899.558411	-27.195187	-283.557159	903.046448	-271.190155	-380.351715	932.803223	-43.445312	-410.575867	925.546692	-121.094482	-395.463791	929.174957	-82.269897	-378.781128	1155.059204	-95.512299	-148.000534	1167.848022	-178.054581	-240.400269	633.760986	51.243877	-317.656433	460.786102	-4.805594	-339.837158	260.708923	24.169693	-343.044678	69.390099	-56.673958	-391.510864	55.238415	-103.490685	-218.329102	40.549915	-96.679535	-336.599976	672.306152	-362.042755	-309.830688	466.814972	-318.906036	-372.744751	274.707275	-332.906921	-308.001678	70.025787	-316.839752	-314.472473	51.123398	-253.865860	-192.676239	44.971245	-377.784363
